<?xml version="1.0" encoding="UTF-8"?>
<!DOCTYPE svg  PUBLIC '-//W3C//DTD SVG 1.1//EN'  'http://www.w3.org/Graphics/SVG/1.1/DTD/svg11.dtd'>
<svg enable-background="new 0 0 296.528 296.528" version="1.1" viewBox="0 0 296.53 296.53" xml:space="preserve" xmlns="http://www.w3.org/2000/svg">
	<path d="m295.84 115.35 3e-3 -1e-3 -0.092-0.76c-1e-3 -0.013-2e-3 -0.023-4e-3 -0.036-1e-3 -0.011-2e-3 -0.021-4e-3 -0.032l-0.344-2.858c-0.069-0.574-0.148-1.228-0.238-1.974l-0.072-0.594-0.147 0.018c-3.617-20.571-13.553-40.093-28.942-56.762-15.317-16.589-35.217-29.687-57.548-37.878-19.133-7.018-39.434-10.577-60.337-10.577-28.22 0-55.627 6.637-79.257 19.193-45.567 24.211-72.441 68.713-68.469 113.38 2.056 23.111 11.11 45.11 26.184 63.621 14.188 17.423 33.381 31.483 55.503 40.66 13.602 5.642 27.051 8.301 41.291 11.116l1.667 0.33c3.921 0.776 4.975 1.842 5.247 2.264 0.503 0.784 0.24 2.329 0.038 3.18-0.186 0.785-0.378 1.568-0.57 2.352-1.529 6.235-3.11 12.683-1.868 19.792 1.428 8.172 6.531 12.859 14.001 12.86h2e-3c8.035 0 17.18-5.39 23.231-8.956l0.808-0.475c14.436-8.478 28.036-18.041 38.271-25.425 22.397-16.159 47.783-34.475 66.815-58.17 19.165-23.865 28.193-54.532 24.831-84.263zm-203.5 45.214h-25.582c-3.866 0-7-3.134-7-7v-53.696c0-3.866 3.134-7 7-7s7 3.134 7 7v46.696h18.581c3.866 0 7 3.134 7 7 1e-3 3.866-3.133 7-6.999 7zm26.687-7.19c0 3.866-3.134 7-7 7s-7-3.134-7-7v-53.696c0-3.866 3.134-7 7-7s7 3.134 7 7v53.696zm63.274 0c0 3.033-1.953 5.721-4.838 6.658-0.712 0.231-1.441 0.343-2.161 0.343-2.199 0-4.323-1.039-5.666-2.888l-25.207-34.717v30.605c0 3.866-3.134 7-7 7s-7-3.134-7-7v-52.16c0-3.033 1.953-5.721 4.838-6.658 2.886-0.936 6.045 0.09 7.827 2.545l25.207 34.717v-32.141c0-3.866 3.134-7 7-7s7 3.134 7 7v53.696zm51.007 5.898h-34.645c-3.866 0-7-3.134-7-7v-53.696c0-3.866 3.134-7 7-7h33.57c3.866 0 7 3.134 7 7s-3.134 7-7 7h-26.57v12.849h21.562c3.866 0 7 3.134 7 7s-3.134 7-7 7h-21.562v12.847h27.645c3.866 0 7 3.134 7 7s-3.134 7-7 7z"/>
</svg>
