<?xml version="1.0" encoding="UTF-8"?>
<!DOCTYPE svg  PUBLIC '-//W3C//DTD SVG 1.1//EN'  'http://www.w3.org/Graphics/SVG/1.1/DTD/svg11.dtd'>
<svg enable-background="new 0 0 94 94" version="1.1" viewBox="0 0 94 94" xml:space="preserve" xmlns="http://www.w3.org/2000/svg">
	<path d="m89 0h-84c-2.761 0-5 2.239-5 5v84c0 2.761 2.239 5 5 5h84c2.762 0 5-2.239 5-5v-84c0-2.761-2.238-5-5-5zm-62.586 84.201h-15.448v-49.698h15.447l1e-3 49.698zm-7.721-56.491c-4.951 0-8.959-4.013-8.959-8.958 1e-3 -4.938 4.01-8.952 8.959-8.952 4.939 0 8.951 4.012 8.951 8.952 0 4.945-4.012 8.958-8.951 8.958zm65.573 56.49h-15.434v-24.167c0-5.764-0.105-13.178-8.029-13.178-8.033 0-9.268 6.278-9.268 12.759v24.586h-15.436v-49.697h14.816v6.79h0.207c2.063-3.907 7.103-8.027 14.614-8.027 15.641 0 18.529 10.294 18.529 23.673v27.261h1e-3z"/>
</svg>
