<?xml version="1.0" encoding="UTF-8"?>
<!DOCTYPE svg  PUBLIC '-//W3C//DTD SVG 1.1//EN'  'http://www.w3.org/Graphics/SVG/1.1/DTD/svg11.dtd'>
<svg enable-background="new 0 0 176.104 176.104" version="1.1" viewBox="0 0 176.1 176.1" xml:space="preserve" xmlns="http://www.w3.org/2000/svg">
		<path d="m150.38 18.301c-7.13-3.928-15.308-6.187-24.033-6.187-15.394 0-29.18 7.015-38.283 18.015-9.146-11-22.919-18.015-38.334-18.015-8.704 0-16.867 2.259-24.013 6.187-15.332 8.491-25.72 24.816-25.72 43.577 0 5.371 0.874 10.522 2.457 15.341 8.537 38.374 85.61 86.771 85.61 86.771s77.022-48.396 85.571-86.771c1.583-4.819 2.466-9.977 2.466-15.341 0-18.754-10.388-35.074-25.721-43.577z"/>
</svg>
